<svg xmlns="http://www.w3.org/2000/svg" xmlns:xlink="http://www.w3.org/1999/xlink" viewBox="0 0 475 126" xmlns:v="https://vecta.io/nano"><path d="M73.423 13.049c-12.481 0-23.107 8.263-27.629 20.018h27.629z"/><path d="M28.194 23.311c-.388-.016-.783.006-1.182.071-3.179.52-5.335 3.517-4.815 6.698 1.764 10.784 8.859 17.288 15.036 20.997a59.2 59.2 0 0 0 1.685 12.29H21.589c-3.221 0-5.831 2.612-5.831 5.833s2.611 5.833 5.831 5.833h21.656c1.639 3.222 3.571 6.196 5.755 8.856-7.626 5.715-14.769 15.686-18.233 20.933-1.775 2.685-1.038 6.303 1.648 8.08.99.654 2.108.967 3.211.967 1.893 0 3.749-.919 4.871-2.615 5.781-8.739 13.235-16.999 17.185-19.344 4.746 3.252 10.094 5.328 15.781 5.951V40.32h-31.44c-3.644-2.468-7.367-6.325-8.314-12.124a5.83 5.83 0 0 0-5.516-4.886z" fill="#f67909"/><g transform="scale(.98599 1.0142)"><use xlink:href="#B"/><path d="M140.89 62.445q0 3.185-.637 6.158-.584 2.92-2.548 4.937-1.062 1.062-2.707 1.699-1.646.584-3.663.584-2.177 0-3.981-.69-1.752-.69-3.397-2.707v14.758h-3.822V49.386h3.822v3.079q1.646-2.017 3.397-2.707 1.752-.69 3.981-.69 2.017 0 3.663.637 1.646.584 2.707 1.646.956.956 1.593 2.23.637 1.274.956 2.707.372 1.433.478 3.026.159 1.539.159 3.132zm-3.822 0q0-1.911-.212-3.716-.212-1.805-.902-3.185-.69-1.38-2.017-2.23-1.274-.849-3.398-.849-2.177 0-3.451.849-1.274.849-2.017 2.23-.69 1.38-.902 3.185-.212 1.805-.212 3.716 0 1.911.212 3.716.212 1.805.902 3.185.743 1.38 2.017 2.23 1.274.849 3.451.849 2.123 0 3.398-.849 1.327-.849 2.017-2.23.69-1.38.902-3.185.212-1.805.212-3.716zm14.382 1.009q0 4.3 1.911 6.689 1.964 2.336 5.786 2.336 2.283 0 3.769-.69 1.54-.743 3.079-2.283l2.601 2.283q-1.009 1.009-2.017 1.752-.956.743-2.124 1.274-1.115.478-2.442.743-1.327.265-2.973.265-2.601 0-4.725-.796-2.124-.796-3.61-2.442-1.486-1.646-2.283-4.141-.796-2.548-.796-5.999 0-6.423 2.867-9.874 2.867-3.504 7.857-3.504 5.149 0 7.91 3.398 2.814 3.344 2.814 9.29v1.699zm13.856-2.867q-.053-.796-.106-1.38-.053-.584-.159-1.062-.053-.478-.212-.902-.159-.478-.372-1.009-.849-1.805-2.442-2.867-1.54-1.062-3.663-1.062-2.124 0-3.716 1.062-1.54 1.062-2.389 2.867-.265.531-.425 1.009-.106.425-.212.902-.053.478-.106 1.062 0 .584-.053 1.38z"/><use xlink:href="#C"/><g fill="#f67909"><path d="M227.78 62.445q0 3.185-.637 6.158-.584 2.92-2.548 4.937-1.062 1.062-2.707 1.699-1.646.584-3.663.584-2.23 0-3.982-.69-1.752-.69-3.398-2.76v3.132h-3.822V37.707h3.822v14.705q1.646-2.017 3.398-2.654 1.805-.69 3.982-.69 2.017 0 3.663.637 1.646.584 2.707 1.646.956.956 1.593 2.23.637 1.274.956 2.707.372 1.433.478 3.026.159 1.539.159 3.132zm-3.822 0q0-1.911-.212-3.716-.212-1.805-.902-3.185-.69-1.38-2.017-2.23-1.274-.849-3.398-.849-2.177 0-3.451.849-1.274.849-2.017 2.23-.69 1.38-.902 3.185-.212 1.805-.212 3.716 0 1.911.212 3.716.212 1.805.902 3.185.743 1.38 2.017 2.23 1.274.849 3.451.849 2.123 0 3.398-.849 1.327-.849 2.017-2.23.69-1.38.902-3.185.212-1.805.212-3.716z"/><use xlink:href="#D"/><path d="M285.08 76.301q0 2.442-.743 4.459-.743 2.07-2.123 3.557-1.38 1.486-3.451 2.336-2.017.849-4.565.849-1.486 0-2.654-.212-1.168-.159-2.23-.584-1.009-.425-2.017-1.115-.956-.637-1.964-1.593l2.495-2.442q.69.637 1.327 1.115.69.478 1.38.796.743.372 1.593.531.849.159 1.964.159 1.911 0 3.238-.637 1.38-.637 2.23-1.699.902-1.062 1.274-2.548.425-1.433.425-3.132v-4.088q-1.593 2.017-3.397 2.707-1.805.69-3.928.69-2.017 0-3.663-.637-1.593-.637-2.654-1.699-1.964-1.964-2.601-4.831-.584-2.867-.584-6.052 0-3.185.584-6.052.637-2.867 2.601-4.831 1.062-1.062 2.707-1.646 1.646-.637 3.663-.637 2.176 0 3.928.69 1.805.637 3.397 2.707v-3.079h3.769zm-3.822-14.068q0-1.805-.212-3.557-.212-1.805-.902-3.132-.69-1.38-1.964-2.23-1.274-.849-3.397-.849-2.123 0-3.451.849-1.274.849-1.964 2.23-.69 1.327-.902 3.132-.212 1.752-.212 3.557 0 1.858.212 3.61.212 1.752.902 3.132.69 1.327 1.964 2.177 1.327.849 3.451.849 2.123 0 3.397-.849 1.274-.849 1.964-2.177.69-1.38.902-3.132.212-1.752.212-3.61z"/></g><path d="M315.39 62.445q0 3.185-.637 6.158-.584 2.92-2.548 4.937-1.062 1.062-2.707 1.699-1.646.584-3.663.584-2.23 0-3.981-.69-1.752-.69-3.397-2.76v3.132h-3.822V37.707h3.822v14.705q1.646-2.017 3.397-2.654 1.805-.69 3.981-.69 2.017 0 3.663.637 1.646.584 2.707 1.646.956.956 1.593 2.23.637 1.274.956 2.707.372 1.433.478 3.026.159 1.539.159 3.132zm-3.822 0q0-1.911-.212-3.716-.212-1.805-.902-3.185-.69-1.38-2.017-2.23-1.274-.849-3.397-.849-2.176 0-3.451.849-1.274.849-2.017 2.23-.69 1.38-.902 3.185-.212 1.805-.212 3.716 0 1.911.212 3.716.212 1.805.902 3.185.743 1.38 2.017 2.23 1.274.849 3.451.849 2.123 0 3.397-.849 1.327-.849 2.017-2.23.69-1.38.902-3.185.212-1.805.212-3.716z"/><use xlink:href="#B" x="231.52"/><use xlink:href="#D" x="115.71"/><use xlink:href="#C" x="204.37"/><path d="M418.71 75.505q-1.699 0-2.973-.531-1.221-.584-2.07-1.54-.796-.956-1.221-2.23-.425-1.274-.425-2.707v-16.19h-3.291v-2.92h3.291v-8.016h3.822v8.016h5.574v2.92h-5.574v16.085q0 1.805.849 2.814.849 1.009 2.707 1.009h2.017v3.291zm16.78 6.317q-.743 2.07-1.858 3.079-1.062 1.009-2.389 1.38-1.327.425-2.707.425h-1.646v-3.397h1.168q1.964 0 2.814-.743.849-.69 1.486-2.495l1.858-5.096-9.396-25.588h4.141l7.167 20.969 7.114-20.969h4.141z"/></g><defs ><path id="B" d="M112 62.445q0 3.026-.637 5.733-.584 2.654-2.548 4.672-1.38 1.38-3.238 2.177-1.858.796-4.247.796-2.389 0-4.247-.796-1.858-.796-3.238-2.177-1.009-1.009-1.646-2.177-.584-1.221-.956-2.495-.319-1.327-.478-2.76-.106-1.433-.106-2.973 0-3.026.584-5.68.584-2.707 2.601-4.725 1.38-1.38 3.238-2.176 1.858-.796 4.247-.796 2.389 0 4.247.796 1.858.796 3.238 2.176 2.017 2.017 2.601 4.725.584 2.654.584 5.68zm-3.822 0q0-2.23-.319-4.406-.319-2.23-1.752-3.663-1.911-1.911-4.778-1.911-2.814 0-4.725 1.911-1.433 1.433-1.805 3.663-.319 2.176-.319 4.406 0 1.115.053 2.23.053 1.115.265 2.177.212 1.062.637 2.017.425.902 1.168 1.646 1.911 1.911 4.725 1.911 2.867 0 4.778-1.911 1.433-1.486 1.752-3.663.319-2.177.319-4.406z"/><path id="C" d="M193.88 75.505V59.42q0-3.504-1.752-5.203-1.699-1.752-4.672-1.752-2.973 0-4.725 1.752-1.752 1.752-1.752 5.203v16.085h-3.822V49.387h3.822v2.867q1.38-1.593 3.238-2.389 1.858-.796 4.088-.796 4.247 0 6.689 2.442 2.707 2.654 2.707 7.273v16.722z"/><path id="D" d="M252.46 75.505v-2.92q-1.38 1.593-3.291 2.442-1.858.796-4.088.796-4.3 0-6.742-2.442-1.38-1.38-2.017-3.185-.637-1.858-.637-4.141V49.387h3.822v16.085q0 3.504 1.699 5.255 1.699 1.699 4.672 1.699 2.973 0 4.725-1.752 1.805-1.752 1.805-5.203V49.387h3.822v26.118z"/></defs></svg>